<svg id="visual" viewBox="0 0 960 540" width="960" height="540" xmlns="http://www.w3.org/2000/svg" xmlns:xlink="http://www.w3.org/1999/xlink" version="1.1"><rect x="0" y="0" width="960" height="540" fill="#001220"></rect><g fill="#A7233A"><circle r="76" cx="736" cy="224"></circle><circle r="43" cx="510" cy="369"></circle><circle r="66" cx="747" cy="459"></circle><circle r="44" cx="330" cy="291"></circle><circle r="45" cx="86" cy="388"></circle><circle r="53" cx="57" cy="188"></circle><circle r="46" cx="917" cy="350"></circle><circle r="56" cx="240" cy="473"></circle><circle r="65" cx="606" cy="539"></circle><circle r="58" cx="499" cy="102"></circle><circle r="68" cx="215" cy="118"></circle><circle r="55" cx="816" cy="16"></circle><circle r="49" cx="926" cy="157"></circle><circle r="52" cx="642" cy="7"></circle><circle r="61" cx="49" cy="5"></circle><circle r="46" cx="945" cy="527"></circle><circle r="63" cx="380" cy="532"></circle><circle r="44" cx="356" cy="17"></circle><circle r="46" cx="26" cy="538"></circle></g></svg>