<svg id="visual" viewBox="0 0 900 600" width="900" height="600" xmlns="http://www.w3.org/2000/svg" xmlns:xlink="http://www.w3.org/1999/xlink" version="1.1"><rect width="900" height="600" fill="#001829"></rect><g><g transform="translate(887 537)"><path d="M0 -91.7L87.2 -28.3L53.9 74.2L-53.9 74.2L-87.2 -28.3Z" fill="#297EA6"></path></g><g transform="translate(415 465)"><path d="M0 -41L39 -12.7L24.1 33.2L-24.1 33.2L-39 -12.7Z" fill="#297EA6"></path></g><g transform="translate(45 322)"><path d="M0 -90L85.6 -27.8L52.9 72.8L-52.9 72.8L-85.6 -27.8Z" fill="#297EA6"></path></g><g transform="translate(177 128)"><path d="M0 -77L73.2 -23.8L45.3 62.3L-45.3 62.3L-73.2 -23.8Z" fill="#297EA6"></path></g><g transform="translate(793 371)"><path d="M0 -54L51.4 -16.7L31.7 43.7L-31.7 43.7L-51.4 -16.7Z" fill="#297EA6"></path></g><g transform="translate(601 556)"><path d="M0 -32L30.4 -9.9L18.8 25.9L-18.8 25.9L-30.4 -9.9Z" fill="#297EA6"></path></g><g transform="translate(518 20)"><path d="M0 -63L59.9 -19.5L37 51L-37 51L-59.9 -19.5Z" fill="#297EA6"></path></g><g transform="translate(323 269)"><path d="M0 -36L34.2 -11.1L21.2 29.1L-21.2 29.1L-34.2 -11.1Z" fill="#297EA6"></path></g><g transform="translate(115 575)"><path d="M0 -38L36.1 -11.7L22.3 30.7L-22.3 30.7L-36.1 -11.7Z" fill="#297EA6"></path></g><g transform="translate(574 249)"><path d="M0 -70L66.6 -21.6L41.1 56.6L-41.1 56.6L-66.6 -21.6Z" fill="#297EA6"></path></g><g transform="translate(873 26)"><path d="M0 -46L43.7 -14.2L27 37.2L-27 37.2L-43.7 -14.2Z" fill="#297EA6"></path></g></g></svg>