<svg id="visual" viewBox="0 0 960 540" width="960" height="540" xmlns="http://www.w3.org/2000/svg" xmlns:xlink="http://www.w3.org/1999/xlink" version="1.1"><path d="M0 109L17.8 103.7C35.7 98.3 71.3 87.7 106.8 90.3C142.3 93 177.7 109 213.2 114.3C248.7 119.7 284.3 114.3 320 109.8C355.7 105.3 391.3 101.7 426.8 99C462.3 96.3 497.7 94.7 533.2 95.7C568.7 96.7 604.3 100.3 640 95.8C675.7 91.3 711.3 78.7 746.8 72.3C782.3 66 817.7 66 853.2 66.8C888.7 67.7 924.3 69.3 942.2 70.2L960 71L960 0L942.2 0C924.3 0 888.7 0 853.2 0C817.7 0 782.3 0 746.8 0C711.3 0 675.7 0 640 0C604.3 0 568.7 0 533.2 0C497.7 0 462.3 0 426.8 0C391.3 0 355.7 0 320 0C284.3 0 248.7 0 213.2 0C177.7 0 142.3 0 106.8 0C71.3 0 35.7 0 17.8 0L0 0Z" fill="#6198ff"></path><path d="M0 174L17.8 163.2C35.7 152.3 71.3 130.7 106.8 128C142.3 125.3 177.7 141.7 213.2 153.3C248.7 165 284.3 172 320 172C355.7 172 391.3 165 426.8 162.3C462.3 159.7 497.7 161.3 533.2 162.2C568.7 163 604.3 163 640 154C675.7 145 711.3 127 746.8 122.5C782.3 118 817.7 127 853.2 127C888.7 127 924.3 118 942.2 113.5L960 109L960 69L942.2 68.2C924.3 67.3 888.7 65.7 853.2 64.8C817.7 64 782.3 64 746.8 70.3C711.3 76.7 675.7 89.3 640 93.8C604.3 98.3 568.7 94.7 533.2 93.7C497.7 92.7 462.3 94.3 426.8 97C391.3 99.7 355.7 103.3 320 107.8C284.3 112.3 248.7 117.7 213.2 112.3C177.7 107 142.3 91 106.8 88.3C71.3 85.7 35.7 96.3 17.8 101.7L0 107Z" fill="#4385ff"></path><path d="M0 239L17.8 232.7C35.7 226.3 71.3 213.7 106.8 215.3C142.3 217 177.7 233 213.2 242C248.7 251 284.3 253 320 250.3C355.7 247.7 391.3 240.3 426.8 238.5C462.3 236.7 497.7 240.3 533.2 243C568.7 245.7 604.3 247.3 640 233.8C675.7 220.3 711.3 191.7 746.8 181.8C782.3 172 817.7 181 853.2 183.7C888.7 186.3 924.3 182.7 942.2 180.8L960 179L960 107L942.2 111.5C924.3 116 888.7 125 853.2 125C817.7 125 782.3 116 746.8 120.5C711.3 125 675.7 143 640 152C604.3 161 568.7 161 533.2 160.2C497.7 159.3 462.3 157.7 426.8 160.3C391.3 163 355.7 170 320 170C284.3 170 248.7 163 213.2 151.3C177.7 139.7 142.3 123.3 106.8 126C71.3 128.7 35.7 150.3 17.8 161.2L0 172Z" fill="#2071ff"></path><path d="M0 384L17.8 374.2C35.7 364.3 71.3 344.7 106.8 343.8C142.3 343 177.7 361 213.2 376.3C248.7 391.7 284.3 404.3 320 407C355.7 409.7 391.3 402.3 426.8 391.5C462.3 380.7 497.7 366.3 533.2 360C568.7 353.7 604.3 355.3 640 360.7C675.7 366 711.3 375 746.8 366C782.3 357 817.7 330 853.2 334.5C888.7 339 924.3 375 942.2 393L960 411L960 177L942.2 178.8C924.3 180.7 888.7 184.3 853.2 181.7C817.7 179 782.3 170 746.8 179.8C711.3 189.7 675.7 218.3 640 231.8C604.3 245.3 568.7 243.7 533.2 241C497.7 238.3 462.3 234.7 426.8 236.5C391.3 238.3 355.7 245.7 320 248.3C284.3 251 248.7 249 213.2 240C177.7 231 142.3 215 106.8 213.3C71.3 211.7 35.7 224.3 17.8 230.7L0 237Z" fill="#0061f1"></path><path d="M0 449L17.8 441C35.7 433 71.3 417 106.8 411.7C142.3 406.3 177.7 411.7 213.2 422.3C248.7 433 284.3 449 320 456.2C355.7 463.3 391.3 461.7 426.8 454.5C462.3 447.3 497.7 434.7 533.2 424.8C568.7 415 604.3 408 640 410.7C675.7 413.3 711.3 425.7 746.8 418.3C782.3 411 817.7 384 853.2 385C888.7 386 924.3 415 942.2 429.5L960 444L960 409L942.2 391C924.3 373 888.7 337 853.2 332.5C817.7 328 782.3 355 746.8 364C711.3 373 675.7 364 640 358.7C604.3 353.3 568.7 351.7 533.2 358C497.7 364.3 462.3 378.7 426.8 389.5C391.3 400.3 355.7 407.7 320 405C284.3 402.3 248.7 389.7 213.2 374.3C177.7 359 142.3 341 106.8 341.8C71.3 342.7 35.7 362.3 17.8 372.2L0 382Z" fill="#0056d6"></path><path d="M0 541L17.8 541C35.7 541 71.3 541 106.8 541C142.3 541 177.7 541 213.2 541C248.7 541 284.3 541 320 541C355.7 541 391.3 541 426.8 541C462.3 541 497.7 541 533.2 541C568.7 541 604.3 541 640 541C675.7 541 711.3 541 746.8 541C782.3 541 817.7 541 853.2 541C888.7 541 924.3 541 942.2 541L960 541L960 442L942.2 427.5C924.3 413 888.7 384 853.2 383C817.7 382 782.3 409 746.8 416.3C711.3 423.7 675.7 411.3 640 408.7C604.3 406 568.7 413 533.2 422.8C497.7 432.7 462.3 445.3 426.8 452.5C391.3 459.7 355.7 461.3 320 454.2C284.3 447 248.7 431 213.2 420.3C177.7 409.7 142.3 404.3 106.8 409.7C71.3 415 35.7 431 17.8 439L0 447Z" fill="#004cbb"></path></svg>